<svg width="25" height="24" viewBox="0 0 25 24" fill="none" xmlns="http://www.w3.org/2000/svg">
<path d="M14.7781 12L12.7894 14L10.8007 12L12.7894 10L14.7781 12ZM12.7894 6L14.8974 8.12L17.3833 5.62L12.7894 1L8.19552 5.62L10.6814 8.12L12.7894 6ZM6.82331 12L8.93134 9.88L6.44546 7.38L1.85156 12L6.44546 16.62L8.93134 14.12L6.82331 12ZM18.7555 12L16.6475 14.12L19.1334 16.62L23.7273 12L19.1334 7.38L16.6475 9.88L18.7555 12ZM12.7894 18L10.6814 15.88L8.19552 18.38L12.7894 23L17.3833 18.38L14.8974 15.88L12.7894 18Z" fill="#323232"/>
</svg>
