<svg width="25" height="24" viewBox="0 0 25 24" fill="none" xmlns="http://www.w3.org/2000/svg">
<path fill-rule="evenodd" clip-rule="evenodd" d="M9.06197 6C6.79667 6 4.96028 7.84683 4.96028 10.125C4.96028 12.4032 6.79667 14.25 9.06197 14.25C11.3273 14.25 13.1637 12.4032 13.1637 10.125C13.1637 7.84683 11.3273 6 9.06197 6ZM3.46875 10.125C3.46875 7.0184 5.97292 4.5 9.06197 4.5C12.151 4.5 14.6552 7.0184 14.6552 10.125C14.6552 13.2316 12.151 15.75 9.06197 15.75C5.97292 15.75 3.46875 13.2316 3.46875 10.125Z" fill="black"/>
<path fill-rule="evenodd" clip-rule="evenodd" d="M16.6577 4.50001L16.66 4.5C18.1434 4.5 19.566 5.09264 20.615 6.14753C21.6639 7.20242 22.2532 8.63316 22.2532 10.125C22.2532 11.6168 21.6639 13.0476 20.615 14.1025C19.566 15.1574 18.1434 15.75 16.66 15.75C16.2481 15.75 15.9142 15.4142 15.9142 15C15.9142 14.5858 16.2481 14.25 16.66 14.25C17.7478 14.25 18.7911 13.8154 19.5603 13.0418C20.3295 12.2682 20.7617 11.219 20.7617 10.125C20.7617 9.03099 20.3295 7.98178 19.5603 7.20819C18.7914 6.43487 17.7485 6.0003 16.6611 6C16.2827 6.00126 15.906 6.05235 15.5408 6.15198C15.1433 6.2604 14.7336 6.02422 14.6258 5.62445C14.518 5.22468 14.7528 4.8127 15.1503 4.70428C15.6418 4.57024 16.1485 4.50157 16.6577 4.50001Z" fill="black"/>
<path fill-rule="evenodd" clip-rule="evenodd" d="M9.06316 15.75C7.86639 15.75 6.68721 16.0397 5.6252 16.5945C4.56319 17.1493 3.64955 17.9531 2.96146 18.9378C2.72465 19.2767 2.2595 19.3584 1.92251 19.1202C1.58552 18.8821 1.50431 18.4143 1.74112 18.0754C2.56683 16.8937 3.6632 15.9292 4.93761 15.2634C6.21202 14.5976 7.62704 14.25 9.06316 14.25C10.4993 14.25 11.9143 14.5976 13.1887 15.2634C14.4631 15.9292 15.5595 16.8937 16.3852 18.0754C16.622 18.4143 16.5408 18.8821 16.2038 19.1202C15.8668 19.3584 15.4017 19.2767 15.1649 18.9378C14.4768 17.9531 13.5631 17.1493 12.5011 16.5945C11.4391 16.0397 10.2599 15.75 9.06316 15.75Z" fill="black"/>
<path fill-rule="evenodd" clip-rule="evenodd" d="M20.0983 16.5933C19.0363 16.0385 17.857 15.7493 16.6603 15.75C16.2484 15.7503 15.9143 15.4147 15.9141 15.0005C15.9138 14.5863 16.2475 14.2503 16.6594 14.25C18.0957 14.2491 19.5112 14.5963 20.7858 15.2622C22.0605 15.9281 23.1569 16.893 23.9821 18.0754C24.2187 18.4144 24.1373 18.8821 23.8001 19.1201C23.463 19.3581 22.9979 19.2762 22.7613 18.9371C22.0737 17.9521 21.1603 17.1481 20.0983 16.5933Z" fill="black"/>
</svg>
