<svg width="24" height="28" viewBox="0 0 24 28" fill="none" xmlns="http://www.w3.org/2000/svg">
<g clip-path="url(#clip0_1070_13406)">
<path d="M16.6528 15.7208H16.1353V14.3595H16.6528V12.7491H16.1353V11.3878H16.6528V9.77734H7.66406V11.3878H8.24531V12.7491H7.66406V14.3595H8.24531V15.7208H7.66406V17.3313H16.6528V15.7208ZM9.01781 11.3878H15.3591V12.7491H9.01781V11.3878ZM9.01781 14.3595H15.3591V15.7208H9.01781V14.3595Z" fill="black"/>
<path d="M2.12391 21.0108H11.7727V22.2196H12.5452V21.0108H21.8789V22.0523H22.6514V20.6278C22.6514 20.4158 22.4789 20.2447 22.2652 20.2447H12.5489V17.8792C12.5489 17.6672 12.3764 17.4961 12.1627 17.4961C11.9489 17.4961 11.7764 17.6672 11.7764 17.8792V20.2447H1.73391C1.52016 20.2447 1.34766 20.4158 1.34766 20.6278V22.6399H2.12016V21.0108H2.12391Z" fill="black"/>
<path d="M3.46875 23.4102H0V27.6167H3.46875V23.4102Z" fill="black"/>
<path d="M13.8945 22.9883H10.4258V27.1948H13.8945V22.9883Z" fill="black"/>
<path d="M24 22.8203H20.5312V27.0306H24V22.8203Z" fill="black"/>
</g>
<g clip-path="url(#clip1_1070_13406)">
<path d="M11.9997 4.13653C13.1171 4.13653 14.0229 3.23065 14.0229 2.11319C14.0229 0.995725 13.1171 0.0898438 11.9997 0.0898438C10.8824 0.0898438 9.97656 0.995725 9.97656 2.11319C9.97656 3.23065 10.8824 4.13653 11.9997 4.13653Z" fill="black"/>
<path d="M13.9329 2.11491C13.932 2.51738 13.8064 2.90976 13.5735 3.23797C13.3508 3.55243 13.0281 3.79812 12.6651 3.92922C12.281 4.06766 11.8593 4.08324 11.466 3.97048C11.092 3.86322 10.7592 3.64135 10.5108 3.34248C9.99195 2.71815 9.93053 1.8032 10.3504 1.11195C10.5539 0.777321 10.8573 0.511454 11.213 0.3501C11.5742 0.185995 11.9913 0.141073 12.38 0.219916C12.7668 0.297843 13.1225 0.494035 13.3957 0.778238C13.6698 1.06427 13.8486 1.43007 13.9109 1.82154C13.9265 1.91872 13.932 2.01681 13.9329 2.11491C13.9329 2.23317 14.1162 2.23317 14.1162 2.11491C14.1153 1.68035 13.9815 1.24855 13.7285 0.894669C13.4782 0.544458 13.1289 0.27584 12.7256 0.127321C12.3121 -0.024865 11.8474 -0.0404503 11.4239 0.0796484C11.0159 0.195163 10.6437 0.437194 10.3733 0.765403C10.0955 1.1037 9.92778 1.51717 9.89294 1.95355C9.85902 2.38994 9.96445 2.83458 10.1918 3.20863C10.4109 3.56985 10.74 3.86505 11.1259 4.03832C11.532 4.22076 11.9858 4.27302 12.4231 4.18592C12.8411 4.1025 13.2316 3.88614 13.5259 3.57901C13.822 3.27097 14.0236 2.87217 14.0887 2.44862C14.1061 2.33769 14.1153 2.22584 14.1153 2.11308C14.1162 1.99664 13.9329 1.99664 13.9329 2.11491Z" fill="black"/>
<path d="M15.0241 8.44141H8.98299C8.74006 8.44141 8.54297 8.2443 8.54297 8.00135V6.9498C8.54297 5.77999 9.49085 4.83203 10.6606 4.83203H13.3465C14.5163 4.83203 15.4641 5.77999 15.4641 6.9498V8.00135C15.4641 8.2443 15.267 8.44141 15.0241 8.44141Z" fill="black"/>
<path d="M15.0221 8.35016H9.02409C8.97183 8.35016 8.92233 8.34925 8.871 8.33274C8.77566 8.30249 8.6959 8.22731 8.65832 8.13472C8.63632 8.08155 8.63265 8.02746 8.63265 7.97153V7.0795C8.63265 6.94657 8.63265 6.81455 8.64915 6.68162C8.67849 6.4515 8.75091 6.22597 8.85725 6.0197C9.07267 5.60531 9.42652 5.27435 9.85463 5.08733C10.071 4.9929 10.3066 4.93881 10.5422 4.92597C10.6118 4.92231 10.6824 4.92322 10.7521 4.92322H13.2868C13.6306 4.92322 13.9652 4.98832 14.2723 5.14784C14.6866 5.36328 15.0175 5.71716 15.2046 6.1453C15.299 6.36166 15.3531 6.59727 15.3659 6.83289C15.3714 6.94107 15.3686 7.04925 15.3686 7.15743C15.3686 7.43705 15.3714 7.71667 15.3686 7.99628C15.3686 8.19156 15.2165 8.34741 15.0221 8.35016C14.9039 8.352 14.9039 8.53535 15.0221 8.53352C15.2999 8.52985 15.5282 8.31716 15.552 8.03937C15.5602 7.93853 15.5538 7.83493 15.5538 7.73408C15.5538 7.45538 15.5602 7.17668 15.5529 6.89798C15.541 6.39283 15.354 5.9051 15.0285 5.52005C14.7104 5.14325 14.2622 4.8783 13.7791 4.78296C13.5444 4.73712 13.3106 4.73987 13.0741 4.73987H11.1059C10.9308 4.73987 10.7558 4.73528 10.5807 4.7417C10.0765 4.76004 9.59153 4.95164 9.21018 5.28169C8.83708 5.60348 8.57673 6.05545 8.48689 6.54043C8.42914 6.85305 8.44839 7.1776 8.44839 7.4948V7.94494C8.44839 7.98528 8.44748 8.0247 8.45298 8.06504C8.46948 8.19614 8.53273 8.32083 8.63449 8.40609C8.73899 8.49226 8.86366 8.53352 8.99842 8.53352H15.0203C15.1404 8.53352 15.1404 8.35016 15.0221 8.35016Z" fill="black"/>
</g>
<defs>
<clipPath id="clip0_1070_13406">
<rect width="24" height="17.8378" fill="white" transform="translate(0 9.77734)"/>
</clipPath>
<clipPath id="clip1_1070_13406">
<rect width="7.11111" height="8.53333" fill="white" transform="translate(8.44531)"/>
</clipPath>
</defs>
</svg>
