<svg width="25" height="25" viewBox="0 0 25 25" fill="none" xmlns="http://www.w3.org/2000/svg">
<g clip-path="url(#clip0_5001_11070)">
<path d="M23.9583 11.4687L18.75 11.4583C18.1771 11.4583 17.7083 11.927 17.7083 12.4999V21.8749C17.7083 22.4478 18.1771 22.9166 18.75 22.9166H23.9583C24.5312 22.9166 25 22.4478 25 21.8749V12.4999C25 11.927 24.5312 11.4687 23.9583 11.4687ZM23.9583 20.8333H18.75V13.5416H23.9583V20.8333ZM20.8333 2.08325H2.08333C0.927083 2.08325 0 3.01034 0 4.16659V16.6666C0 17.8124 0.927083 18.7499 2.08333 18.7499H9.375V20.8333H7.29167V22.9166H15.625V20.8333H13.5417V18.7499H15.625V16.6666H2.08333V4.16659H20.8333V9.37492H22.9167V4.16659C22.9167 3.01034 21.9792 2.08325 20.8333 2.08325Z" fill="#333333"/>
<g clip-path="url(#clip1_5001_11070)">
<path d="M14.4844 11.4053C14.5035 11.2525 14.5178 11.0997 14.5178 10.9374C14.5178 10.7751 14.5035 10.6223 14.4844 10.4695L15.4918 9.68175C15.5825 9.61013 15.6063 9.48123 15.5491 9.37619L14.5942 7.72428C14.5512 7.6479 14.4701 7.60493 14.3841 7.60493C14.3555 7.60493 14.3268 7.6097 14.303 7.61925L13.1142 8.09668C12.8659 7.90571 12.5985 7.74816 12.3073 7.6288L12.1259 6.36361C12.1116 6.24902 12.0113 6.16309 11.8919 6.16309H9.98221C9.86285 6.16309 9.76259 6.24902 9.74827 6.36361L9.56685 7.6288C9.27561 7.74816 9.00825 7.91048 8.75999 8.09668L7.57119 7.61925C7.54254 7.6097 7.5139 7.60493 7.48525 7.60493C7.40409 7.60493 7.32292 7.6479 7.27995 7.72428L6.32509 9.37619C6.26303 9.48123 6.29167 9.61013 6.38238 9.68175L7.38976 10.4695C7.37067 10.6223 7.35634 10.7798 7.35634 10.9374C7.35634 11.0949 7.37067 11.2525 7.38976 11.4053L6.38238 12.193C6.29167 12.2646 6.2678 12.3936 6.32509 12.4986L7.27995 14.1505C7.32292 14.2269 7.40409 14.2699 7.49002 14.2699C7.51867 14.2699 7.54732 14.2651 7.57119 14.2555L8.75999 13.7781C9.00825 13.9691 9.27561 14.1266 9.56685 14.246L9.74827 15.5112C9.76259 15.6258 9.86285 15.7117 9.98221 15.7117H11.8919C12.0113 15.7117 12.1116 15.6258 12.1259 15.5112L12.3073 14.246C12.5985 14.1266 12.8659 13.9643 13.1142 13.7781L14.303 14.2555C14.3316 14.2651 14.3602 14.2699 14.3889 14.2699C14.4701 14.2699 14.5512 14.2269 14.5942 14.1505L15.5491 12.4986C15.6063 12.3936 15.5825 12.2646 15.4918 12.193L14.4844 11.4053V11.4053ZM13.5391 10.5889C13.5582 10.7369 13.5629 10.8371 13.5629 10.9374C13.5629 11.0377 13.5534 11.1427 13.5391 11.2859L13.4722 11.8254L13.8971 12.1596L14.4128 12.5607L14.0786 13.1383L13.4722 12.8949L12.9757 12.6943L12.546 13.019C12.3407 13.1718 12.145 13.2864 11.9492 13.3675L11.4431 13.5728L11.3668 14.1123L11.2713 14.7568H10.6029L10.5122 14.1123L10.4358 13.5728L9.92969 13.3675C9.7244 13.2816 9.53343 13.1718 9.34245 13.0285L8.90799 12.6943L8.40192 12.8996L7.79558 13.1431L7.46138 12.5654L7.977 12.1644L8.40192 11.8302L8.33508 11.2907C8.32075 11.1427 8.3112 11.0329 8.3112 10.9374C8.3112 10.8419 8.32075 10.7321 8.33508 10.5889L8.40192 10.0494L7.977 9.71517L7.46138 9.31413L7.79558 8.73644L8.40192 8.97993L8.89844 9.18045L9.32813 8.85579C9.53343 8.70302 9.72917 8.58843 9.92492 8.50727L10.431 8.30197L10.5074 7.76248L10.6029 7.11795H11.2665L11.3572 7.76248L11.4336 8.30197L11.9397 8.50727C12.145 8.59321 12.3359 8.70302 12.5269 8.84625L12.9614 9.18045L13.4675 8.97515L14.0738 8.73166L14.408 9.30935L13.8971 9.71517L13.4722 10.0494L13.5391 10.5889ZM10.9371 9.02767C9.88195 9.02767 9.02735 9.88227 9.02735 10.9374C9.02735 11.9925 9.88195 12.8471 10.9371 12.8471C11.9922 12.8471 12.8468 11.9925 12.8468 10.9374C12.8468 9.88227 11.9922 9.02767 10.9371 9.02767ZM10.9371 11.8923C10.4119 11.8923 9.98221 11.4626 9.98221 10.9374C9.98221 10.4122 10.4119 9.98253 10.9371 9.98253C11.4622 9.98253 11.8919 10.4122 11.8919 10.9374C11.8919 11.4626 11.4622 11.8923 10.9371 11.8923Z" fill="#333333"/>
</g>
</g>
<defs>
<clipPath id="clip0_5001_11070">
<rect width="25" height="25" fill="white"/>
</clipPath>
<clipPath id="clip1_5001_11070">
<rect width="11.4583" height="11.4583" fill="white" transform="translate(5.20801 5.20825)"/>
</clipPath>
</defs>
</svg>
