<svg width="23" height="24" viewBox="0 0 23 24" fill="none" xmlns="http://www.w3.org/2000/svg">
<g clip-path="url(#clip0_931_22435)">
<rect width="21.7964" height="24" transform="translate(0.830078)" fill="white"/>
<mask id="mask0_931_22435" style="mask-type:luminance" maskUnits="userSpaceOnUse" x="0" y="0" width="23" height="24">
<path d="M22.6265 0H0.830078V24H22.6265V0Z" fill="white"/>
</mask>
<g mask="url(#mask0_931_22435)">
<path d="M21.9151 11.2971H20.4758C20.3021 8.92617 19.2929 6.69671 17.6137 5.01629C15.9346 3.33588 13.7094 2.32097 11.3519 2.14627V0.707106C11.3519 0.316118 11.0376 0 10.6488 0C10.26 0 9.9457 0.316118 9.9457 0.707106V2.14627C7.46414 2.33761 5.14801 3.45234 3.46054 5.2825C1.77307 7.11265 0.830078 9.50849 0.830078 12.0042C0.830078 14.4998 1.77307 16.8957 3.46054 18.7258C5.14801 20.556 7.46414 21.6707 9.9457 21.862V23.3012C9.9457 23.6922 10.26 24.0083 10.6488 24.0083C11.0376 24.0083 11.3519 23.6922 11.3519 23.3012V21.862C13.7177 21.6957 15.9428 20.6724 17.6137 18.992C19.2929 17.3116 20.3021 15.0821 20.4758 12.7113H21.9151C22.3039 12.7113 22.6182 12.3951 22.6182 12.0042C22.6182 11.6132 22.3039 11.2971 21.9151 11.2971ZM9.9457 20.4395C7.83637 20.2565 5.87593 19.2832 4.44489 17.7276C3.01386 16.1636 2.21976 14.1255 2.21976 12.0042C2.21976 9.88284 3.01386 7.84471 4.44489 6.28076C5.87593 4.71681 7.83637 3.75182 9.9457 3.5688V20.4478V20.4395ZM11.3519 20.4395V12.7029H19.0696C18.9042 14.6995 18.0356 16.5712 16.6211 17.9854C15.2066 19.3997 13.3454 20.2731 11.3519 20.4395ZM11.3519 11.2971V3.56049C13.3454 3.72686 15.2066 4.60035 16.6211 6.01456C18.0356 7.42877 18.8959 9.30052 19.0696 11.2971H11.3519Z" fill="black"/>
<path d="M10.8227 3.15234L11.4597 11.4712H19.0946L17.1838 5.71456L13.9991 3.7929L10.8145 3.15234H10.8227Z" fill="black" stroke="black"/>
</g>
</g>
<defs>
<clipPath id="clip0_931_22435">
<rect width="21.7964" height="24" fill="white" transform="translate(0.830078)"/>
</clipPath>
</defs>
</svg>
