<svg width="24" height="18" viewBox="0 0 24 18" fill="none" xmlns="http://www.w3.org/2000/svg">
<g clip-path="url(#clip0_1070_13643)">
<path d="M16.6528 5.94347H16.1353V4.5822H16.6528V2.97173H16.1353V1.61046H16.6528V0H7.66406V1.61046H8.24531V2.97173H7.66406V4.5822H8.24531V5.94347H7.66406V7.55393H16.6528V5.94347ZM9.01781 1.61046H15.3591V2.97173H9.01781V1.61046ZM9.01781 4.5822H15.3591V5.94347H9.01781V4.5822Z" fill="black"/>
<path d="M2.12391 11.2335H11.7727V12.4423H12.5452V11.2335H21.8789V12.2749H22.6514V10.8504C22.6514 10.6384 22.4789 10.4673 22.2652 10.4673H12.5489V8.10184C12.5489 7.88984 12.3764 7.71875 12.1627 7.71875C11.9489 7.71875 11.7764 7.88984 11.7764 8.10184V10.4673H1.73391C1.52016 10.4673 1.34766 10.6384 1.34766 10.8504V12.8626H2.12016V11.2335H2.12391Z" fill="black"/>
<path d="M3.46875 13.6328H0V17.8394H3.46875V13.6328Z" fill="black"/>
<path d="M13.8945 13.2109H10.4258V17.4175H13.8945V13.2109Z" fill="black"/>
<path d="M24 13.043H20.5312V17.2532H24V13.043Z" fill="black"/>
</g>
<defs>
<clipPath id="clip0_1070_13643">
<rect width="24" height="17.8378" fill="white"/>
</clipPath>
</defs>
</svg>
