<svg width="75" height="75" viewBox="0 0 75 75" fill="none" xmlns="http://www.w3.org/2000/svg">
<circle cx="37.5" cy="37.5" r="37" fill="white" stroke="#6B6B6B"/>
<g clip-path="url(#clip0_452_5687)">
<path d="M34.3195 38.425C34.0919 38.0428 33.7616 37.7816 33.3373 37.6487C32.7971 37.427 32.2215 37.4362 31.7129 37.4428C31.3287 37.4474 30.9642 37.4533 30.7287 37.3566C30.5478 37.1474 30.4333 36.7559 30.3123 36.3434C30.1478 35.7829 29.9616 35.148 29.5208 34.6625C29.2846 34.3638 28.9813 34.1638 28.6182 34.0678C28.5787 34.0572 28.5373 34.0513 28.4945 34.0507C28.4313 34.0454 28.3669 34.0507 28.305 34.0678C27.9419 34.1638 27.6386 34.3645 27.4024 34.6625C26.9616 35.148 26.7748 35.7829 26.6103 36.3434C26.4892 36.7559 26.3748 37.1467 26.1938 37.3566C25.9576 37.4539 25.5938 37.4487 25.2096 37.4428C24.7004 37.4362 24.1248 37.427 23.5853 37.6487C23.1609 37.7816 22.8313 38.0428 22.603 38.425C22.5511 38.5125 22.5234 38.6125 22.5234 38.7138L22.5248 38.7783C22.5149 39.1072 22.5879 39.4178 22.7419 39.702C23.0386 40.327 23.5728 40.725 24.0451 41.0763C24.3905 41.3329 24.7175 41.5763 24.8405 41.8349C24.857 42.1191 24.7373 42.4921 24.6103 42.8849C24.4649 43.3362 24.3004 43.8467 24.2951 44.3796C24.2478 44.898 24.3761 45.3539 24.6761 45.7342C24.7353 45.8092 24.8129 45.8684 24.9011 45.9046C24.9149 45.9118 24.93 45.9191 24.9445 45.925C25.157 46.0145 25.3734 46.0599 25.5912 46.0592C25.7899 46.0592 25.9892 46.0224 26.1899 45.948C26.7379 45.7895 27.1899 45.4322 27.5899 45.1164C27.909 44.8645 28.2116 44.6257 28.4616 44.5664C28.7116 44.6257 29.0142 44.8645 29.3333 45.1164C29.7333 45.4322 30.1853 45.7888 30.7333 45.9474C31.1544 46.1033 31.5734 46.0947 31.9787 45.9237C31.9925 45.9178 32.007 45.9112 32.0201 45.9039C32.109 45.8671 32.1873 45.8086 32.2465 45.7329C32.5471 45.3526 32.6754 44.8974 32.628 44.3783C32.6228 43.8461 32.4583 43.3349 32.3129 42.8836C32.1859 42.4908 32.0662 42.1178 32.0826 41.8336C32.2057 41.575 32.5326 41.3316 32.8774 41.075C33.3498 40.7237 33.884 40.3257 34.1807 39.7007C34.3346 39.4171 34.4076 39.1072 34.3978 38.7783L34.3991 38.7125C34.3991 38.6105 34.3721 38.5105 34.3195 38.4237V38.425ZM33.1846 39.1711C33.1774 39.1836 33.1715 39.1961 33.1655 39.2092C32.9912 39.5849 32.609 39.8697 32.2037 40.1711C31.7175 40.5329 31.2142 40.9072 30.9984 41.5059C30.9853 41.5428 30.9754 41.5816 30.9701 41.6204C30.8951 42.1664 31.0695 42.7086 31.2386 43.2322C31.3675 43.6309 31.5004 44.0434 31.4998 44.4086C31.4998 44.4283 31.5011 44.448 31.5024 44.4671C31.5215 44.6507 31.5011 44.7928 31.4359 44.9197C31.332 44.9428 31.23 44.9316 31.1129 44.8862C31.0958 44.8796 31.078 44.8737 31.0603 44.8691C30.7201 44.775 30.3708 44.4993 30.0326 44.2322C29.5767 43.873 29.1057 43.5007 28.5241 43.4355C28.4826 43.4309 28.4399 43.4309 28.3984 43.4355C27.8169 43.5007 27.3458 43.8724 26.8905 44.2322C26.5524 44.4987 26.203 44.775 25.8629 44.8691C25.8451 44.8737 25.8274 44.8796 25.8103 44.8862C25.6925 44.9316 25.5912 44.9428 25.4873 44.9197C25.4215 44.7928 25.4017 44.6513 25.4215 44.4678C25.4234 44.448 25.4241 44.4283 25.4241 44.4086C25.4241 44.0434 25.557 43.6309 25.6846 43.2322C25.8537 42.7086 26.028 42.1664 25.953 41.6204C25.9478 41.5816 25.9386 41.5428 25.9248 41.5059C25.709 40.9072 25.2057 40.5329 24.7195 40.1711C24.3142 39.8697 23.932 39.5849 23.7576 39.2086C23.7517 39.1961 23.7451 39.1836 23.7386 39.1711C23.6892 39.0822 23.6623 38.9914 23.655 38.8914C23.7287 38.8099 23.8182 38.7572 23.9379 38.7217C23.959 38.7158 23.9794 38.7079 23.9998 38.6993C24.3274 38.5592 24.7478 38.5645 25.1932 38.5717C25.7425 38.5796 26.3083 38.5882 26.8024 38.3145C26.8419 38.2928 26.8787 38.2664 26.9116 38.2355C27.3498 37.8309 27.5248 37.2362 27.6932 36.6612C27.8313 36.1908 27.9741 35.7046 28.2465 35.4118C28.2583 35.3987 28.2701 35.3855 28.2807 35.3717C28.3353 35.3013 28.3932 35.2493 28.4616 35.2112C28.5294 35.2487 28.5879 35.3007 28.6419 35.3717C28.6524 35.3855 28.6642 35.3993 28.6761 35.4118C28.9484 35.7046 29.0912 36.1908 29.2294 36.6612C29.3978 37.2368 29.5728 37.8316 30.0109 38.2355C30.0438 38.2658 30.0807 38.2928 30.1201 38.3145C30.6136 38.5875 31.1794 38.5789 31.7294 38.5717C32.1741 38.5645 32.5951 38.5586 32.9228 38.6993C32.9432 38.7079 32.9636 38.7158 32.9846 38.7217C33.1044 38.7572 33.1938 38.8099 33.2675 38.8914C33.2609 38.9921 33.234 39.0829 33.1846 39.1711Z" fill="black"/>
<path d="M36.8203 42.35H41.1953V43.4789H36.8203V42.35Z" fill="black"/>
<path d="M36.8203 36.1434H44.544V37.2724H36.8203V36.1434Z" fill="black"/>
<path d="M36.8203 39.2467H44.5532V40.3757H36.8203V39.2467Z" fill="black"/>
<path d="M44.473 31.9316H23.8586C21.7309 31.9316 20 33.6625 20 35.7901V44.9783C20 47.1059 21.7309 48.8368 23.8586 48.8368H26.5868V54.3237C26.5868 54.55 26.7217 54.7539 26.9296 54.8428C27.0013 54.873 27.0763 54.8882 27.1513 54.8882C27.2941 54.8882 27.4349 54.8342 27.5421 54.7309L33.6914 48.8368H44.473C46.6007 48.8368 48.3316 47.1059 48.3316 44.9783V35.7901C48.3316 33.6625 46.6007 31.9316 44.473 31.9316ZM47.2033 44.9783C47.2033 46.4836 45.9789 47.7079 44.4737 47.7079H33.4658C33.3204 47.7079 33.1803 47.7645 33.075 47.8651L27.7171 53.0007V48.2724C27.7171 47.9605 27.4645 47.7079 27.1526 47.7079H23.8599C22.3546 47.7079 21.1303 46.4836 21.1303 44.9783V35.7901C21.1303 34.2849 22.3546 33.0605 23.8599 33.0605H44.4743C45.9796 33.0605 47.2039 34.2849 47.2039 35.7901V44.9783H47.2033Z" fill="black"/>
<path d="M37.8944 26.6947C37.6667 26.3125 37.3365 26.052 36.9121 25.9184C36.372 25.6961 35.7957 25.7053 35.2871 25.7125C34.9036 25.7191 34.5391 25.7237 34.3029 25.6263C34.122 25.4171 34.0075 25.0257 33.8865 24.6132C33.722 24.0526 33.5358 23.4178 33.095 22.9322C32.8595 22.6336 32.5556 22.4342 32.1931 22.3375C32.1542 22.327 32.1128 22.3217 32.0707 22.3204C32.0062 22.3151 31.9417 22.3204 31.8786 22.3375C31.5154 22.4342 31.2121 22.6342 30.9766 22.9322C30.5358 23.4178 30.3496 24.052 30.1852 24.6132C30.0641 25.0257 29.949 25.4171 29.7687 25.6263C29.5325 25.7237 29.1687 25.7191 28.7845 25.7125C28.2746 25.7053 27.6996 25.6967 27.1595 25.9184C26.7358 26.052 26.4056 26.3132 26.1773 26.6947C26.1253 26.7822 26.0977 26.8822 26.0977 26.9842L26.099 27.0487C26.0891 27.3776 26.1615 27.6882 26.3161 27.9724C26.6128 28.5974 27.147 28.9954 27.6194 29.3474C27.9884 29.6217 28.3365 29.8809 28.4371 30.1592L29.4996 29.7763C29.2838 29.1776 28.7806 28.8033 28.2944 28.4414C27.8891 28.1401 27.5069 27.8553 27.3325 27.4789C27.3266 27.4664 27.32 27.4539 27.3134 27.4414C27.2641 27.3526 27.2371 27.2618 27.2299 27.1618C27.3036 27.0803 27.3931 27.0276 27.5128 26.9921C27.5338 26.9862 27.5542 26.9783 27.5746 26.9697C27.9023 26.8289 28.3227 26.8349 28.7687 26.8421C29.3167 26.8487 29.8838 26.8586 30.3773 26.5855C30.4167 26.5638 30.4536 26.5368 30.4871 26.5066C30.9259 26.102 31.1003 25.5072 31.2694 24.9316C31.4075 24.4618 31.5503 23.975 31.8227 23.6829C31.8345 23.6697 31.8463 23.6566 31.8569 23.6421C31.9108 23.5717 31.9694 23.5197 32.0371 23.4816C32.1056 23.5191 32.1634 23.5717 32.2174 23.6421C32.2279 23.6559 32.2398 23.6697 32.2516 23.6829C32.524 23.9757 32.6667 24.4618 32.8049 24.9322C32.9733 25.5079 33.1483 26.1026 33.5865 26.5066C33.6194 26.5368 33.6562 26.5638 33.6963 26.5855C34.1898 26.8579 34.7562 26.8487 35.3049 26.8421C35.7503 26.8349 36.1707 26.8289 36.499 26.9697C36.5194 26.9783 36.5398 26.9862 36.5608 26.9921C36.6806 27.0276 36.77 27.0809 36.8437 27.1618C36.8365 27.2625 36.8095 27.3526 36.7602 27.4414C36.7529 27.4539 36.747 27.4664 36.7411 27.4796C36.5667 27.8553 36.1845 28.1401 35.7792 28.4414C35.2924 28.8033 34.7898 29.1776 34.574 29.7763L35.6358 30.1592C35.7358 29.8809 36.0845 29.6217 36.4536 29.3474C36.9259 28.9961 37.4602 28.598 37.7569 27.9724C37.9108 27.6888 37.9838 27.3789 37.974 27.05L37.9753 26.9888C37.9753 26.8855 37.9483 26.7836 37.895 26.6954L37.8944 26.6947Z" fill="black"/>
<path d="M40.3867 24.75H48.1104V25.8789H40.3867V24.75Z" fill="black"/>
<path d="M40.3867 27.8526H48.1196V28.9816H40.3867V27.8526Z" fill="black"/>
<path d="M53.7436 28.3026L52.9811 29.1355C53.5475 29.6539 53.8719 30.3868 53.8719 31.1467V40.3342C53.8719 41.8395 52.6475 43.0638 51.1423 43.0638H50.2344V44.1928H51.1423C53.2699 44.1928 55.0008 42.4618 55.0008 40.3342V31.146C55.0008 30.0704 54.5429 29.0342 53.7436 28.302V28.3026Z" fill="black"/>
<path d="M49.6953 35.2171L50.3801 36.1151C51.3499 35.375 51.9065 34.2566 51.9065 33.0461V23.8592C51.9058 21.7309 50.1749 20 48.0472 20H27.4328C25.3051 20 23.5742 21.7309 23.5742 23.8586V29.8408H24.7032V23.8592C24.7032 22.3539 25.9275 21.1296 27.4328 21.1296H48.0472C49.5525 21.1296 50.7768 22.3539 50.7768 23.8592V33.0467C50.7768 33.902 50.3828 34.6934 49.6953 35.2178V35.2171Z" fill="black"/>
</g>
<defs>
<clipPath id="clip0_452_5687">
<rect width="35" height="34.8888" fill="white" transform="translate(20 20)"/>
</clipPath>
</defs>
</svg>
