<svg width="20" height="21" viewBox="0 0 20 21" fill="none" xmlns="http://www.w3.org/2000/svg">
<g clip-path="url(#clip0_547_12093)">
<path d="M5.76905 8.71203C5.96968 8.91473 6.29855 8.91473 6.50124 8.71203C6.70394 8.50934 6.70394 8.18254 6.50124 7.97984L5.1196 6.59199C5.05341 6.52581 5.05341 6.41618 5.1196 6.34793L6.50124 4.96008C6.69773 4.75738 6.6936 4.43472 6.49297 4.23616C6.29234 4.0376 5.96968 4.03553 5.76905 4.23202L4.38534 5.61574C3.91583 6.08732 3.91583 6.84847 4.38534 7.32005L5.76905 8.70997V8.71203Z" fill="black"/>
<path d="M10.3067 7.98352C10.1061 8.18622 10.1061 8.51301 10.3067 8.71571C10.5094 8.91634 10.8362 8.91634 11.0389 8.71571L12.4206 7.32786C12.888 6.85628 12.888 6.0972 12.4206 5.62562L11.0389 4.23984C10.8362 4.04334 10.5136 4.04541 10.315 4.24397C10.1144 4.44253 10.1123 4.76519 10.3067 4.96789L11.6863 6.35574C11.7525 6.42193 11.7525 6.53155 11.6863 6.5998L10.3067 7.98766V7.98352Z" fill="black"/>
<path d="M7.58645 9.7413C7.62782 9.75164 7.66919 9.75578 7.71262 9.75578C7.95048 9.75578 8.15524 9.59445 8.21523 9.36486L9.59894 3.83C9.6341 3.69763 9.61549 3.55284 9.54517 3.43495C9.47484 3.31499 9.35901 3.23018 9.22457 3.19502C9.09013 3.16193 8.94742 3.18261 8.82952 3.255C8.71163 3.3274 8.62683 3.44322 8.5958 3.57766L7.21415 9.11253C7.14383 9.38968 7.31343 9.67098 7.58852 9.7413H7.58645Z" fill="black"/>
<path d="M13.0575 11.8608C13.0575 11.5754 12.8259 11.3438 12.5404 11.3438H4.26708C3.98165 11.3438 3.75 11.5754 3.75 11.8608C3.75 12.1463 3.98165 12.3779 4.26708 12.3779H12.5404C12.8259 12.3779 13.0575 12.1463 13.0575 11.8608Z" fill="black"/>
<path d="M11.9421 14.2827C11.9421 13.9973 11.7104 13.7656 11.425 13.7656H5.38134C5.09591 13.7656 4.86426 13.9973 4.86426 14.2827C4.86426 14.5681 5.09591 14.7998 5.38134 14.7998H11.425C11.7104 14.7998 11.9421 14.5681 11.9421 14.2827Z" fill="black"/>
<path d="M16.8052 4.14287V3.27417C16.8052 2.40547 16.4577 1.574 15.8455 0.959707C15.2333 0.345412 14.3997 0 13.531 0H3.27417C2.40754 0 1.574 0.34748 0.959707 0.959707C0.34748 1.574 0 2.40754 0 3.27624V17.4733C0.006205 19.0535 1.2865 20.3338 2.86878 20.34H16.4019C17.7463 20.28 18.8673 19.2955 19.1011 17.9718C19.1445 17.7194 19.0742 17.4629 18.9087 17.2665C18.7453 17.07 18.5033 16.9583 18.2468 16.9562H16.8073V4.14287H16.8052ZM4.87713 17.4712C4.87713 18.4744 4.06841 19.2893 3.06734 19.3017H2.86051C1.85323 19.2934 1.04037 18.4785 1.03417 17.4712V3.27624C1.03417 2.03938 2.03731 1.03624 3.27417 1.03417H13.531C14.7679 1.03417 15.7711 2.03938 15.7731 3.27624V16.9562H5.39422C5.10879 16.9562 4.87713 17.1879 4.87713 17.4733V17.4712ZM18.0338 17.9862C17.8187 18.7329 17.1548 19.2603 16.3791 19.3017H5.24736C5.56382 18.9253 5.77686 18.4723 5.86786 17.9883H18.0359L18.0338 17.9862Z" fill="black"/>
</g>
<defs>
<clipPath id="clip0_547_12093">
<rect width="19.1114" height="20.34" fill="white"/>
</clipPath>
</defs>
</svg>
