<svg width="14" height="18" viewBox="0 0 14 18" fill="none" xmlns="http://www.w3.org/2000/svg">
<path d="M10.125 10.8749C10.125 11.0406 10.0592 11.1996 9.94194 11.3168C9.82473 11.434 9.66576 11.4999 9.5 11.4999H4.5C4.33424 11.4999 4.17527 11.434 4.05806 11.3168C3.94085 11.1996 3.875 11.0406 3.875 10.8749C3.875 10.7091 3.94085 10.5502 4.05806 10.4329C4.17527 10.3157 4.33424 10.2499 4.5 10.2499H9.5C9.66576 10.2499 9.82473 10.3157 9.94194 10.4329C10.0592 10.5502 10.125 10.7091 10.125 10.8749ZM9.5 7.74989H4.5C4.33424 7.74989 4.17527 7.81573 4.05806 7.93295C3.94085 8.05016 3.875 8.20913 3.875 8.37489C3.875 8.54065 3.94085 8.69962 4.05806 8.81683C4.17527 8.93404 4.33424 8.99989 4.5 8.99989H9.5C9.66576 8.99989 9.82473 8.93404 9.94194 8.81683C10.0592 8.69962 10.125 8.54065 10.125 8.37489C10.125 8.20913 10.0592 8.05016 9.94194 7.93295C9.82473 7.81573 9.66576 7.74989 9.5 7.74989ZM13.875 2.74989V15.8749C13.875 16.2064 13.7433 16.5243 13.5089 16.7588C13.2745 16.9932 12.9565 17.1249 12.625 17.1249H1.375C1.04348 17.1249 0.725537 16.9932 0.491116 16.7588C0.256696 16.5243 0.125 16.2064 0.125 15.8749V2.74989C0.125 2.41837 0.256696 2.10042 0.491116 1.866C0.725537 1.63158 1.04348 1.49989 1.375 1.49989H4.20781C4.55899 1.1067 4.98924 0.792119 5.47041 0.576729C5.95158 0.361339 6.47282 0.25 7 0.25C7.52718 0.25 8.04841 0.361339 8.52958 0.576729C9.01076 0.792119 9.44101 1.1067 9.79219 1.49989H12.625C12.9565 1.49989 13.2745 1.63158 13.5089 1.866C13.7433 2.10042 13.875 2.41837 13.875 2.74989ZM4.5 3.99989H9.5C9.5 3.33685 9.23661 2.70096 8.76777 2.23212C8.29893 1.76328 7.66304 1.49989 7 1.49989C6.33696 1.49989 5.70107 1.76328 5.23223 2.23212C4.76339 2.70096 4.5 3.33685 4.5 3.99989ZM12.625 2.74989H10.5352C10.6773 3.15131 10.75 3.57403 10.75 3.99989V4.62489C10.75 4.79065 10.6842 4.94962 10.5669 5.06683C10.4497 5.18404 10.2908 5.24989 10.125 5.24989H3.875C3.70924 5.24989 3.55027 5.18404 3.43306 5.06683C3.31585 4.94962 3.25 4.79065 3.25 4.62489V3.99989C3.25001 3.57403 3.32267 3.15131 3.46484 2.74989H1.375V15.8749H12.625V2.74989Z" fill="#1C1C1C"/>
</svg>
