<svg width="73" height="26" viewBox="0 0 73 26" fill="none" xmlns="http://www.w3.org/2000/svg">
<rect width="73" height="26" rx="4" fill="#F8F8F8"/>
<path d="M28.172 8.624C29.052 8.624 29.824 8.796 30.488 9.14C31.16 9.484 31.676 9.976 32.036 10.616C32.404 11.248 32.588 11.984 32.588 12.824C32.588 13.664 32.404 14.4 32.036 15.032C31.676 15.656 31.16 16.14 30.488 16.484C29.824 16.828 29.052 17 28.172 17H25.244V8.624H28.172ZM28.112 15.572C28.992 15.572 29.672 15.332 30.152 14.852C30.632 14.372 30.872 13.696 30.872 12.824C30.872 11.952 30.632 11.272 30.152 10.784C29.672 10.288 28.992 10.04 28.112 10.04H26.924V15.572H28.112ZM38.6656 17L36.8176 13.736H36.0256V17H34.3456V8.624H37.4896C38.1376 8.624 38.6896 8.74 39.1456 8.972C39.6016 9.196 39.9416 9.504 40.1656 9.896C40.3976 10.28 40.5136 10.712 40.5136 11.192C40.5136 11.744 40.3536 12.244 40.0336 12.692C39.7136 13.132 39.2376 13.436 38.6056 13.604L40.6096 17H38.6656ZM36.0256 12.476H37.4296C37.8856 12.476 38.2256 12.368 38.4496 12.152C38.6736 11.928 38.7856 11.62 38.7856 11.228C38.7856 10.844 38.6736 10.548 38.4496 10.34C38.2256 10.124 37.8856 10.016 37.4296 10.016H36.0256V12.476ZM47.6691 15.404H44.3331L43.7811 17H42.0171L45.0291 8.612H46.9851L49.9971 17H48.2211L47.6691 15.404ZM47.2131 14.06L46.0011 10.556L44.7891 14.06H47.2131ZM56.7949 8.624V9.98H53.3029V12.128H55.9789V13.46H53.3029V17H51.6229V8.624H56.7949ZM64.1862 8.624V9.98H61.9542V17H60.2742V9.98H58.0422V8.624H64.1862Z" fill="#666666"/>
<g clip-path="url(#clip0_7166_705)">
<path d="M7.75004 9.49998H18.25V12.4166H19.4167V9.49998C19.4167 8.85831 18.8917 8.33331 18.25 8.33331H7.75004C7.10837 8.33331 6.58337 8.85831 6.58337 9.49998V16.5C6.58337 17.1416 7.10837 17.6666 7.75004 17.6666H13V16.5H7.75004V9.49998Z" fill="#8C8C8C"/>
<path d="M14.75 13L11.25 10.6666V15.3333L14.75 13Z" fill="#8C8C8C"/>
<g clip-path="url(#clip1_7166_705)">
<path d="M17.1008 15.6308L17.3692 15.8992L14.7267 18.5417H14.4583V18.2733L17.1008 15.6308ZM18.1508 13.875C18.0779 13.875 18.0021 13.9042 17.9467 13.9596L17.4129 14.4933L18.5067 15.5871L19.0404 15.0533C19.1542 14.9396 19.1542 14.7558 19.0404 14.6421L18.3579 13.9596C18.2996 13.9012 18.2267 13.875 18.1508 13.875ZM17.1008 14.8054L13.875 18.0312V19.125H14.9688L18.1946 15.8992L17.1008 14.8054Z" fill="#8C8C8C"/>
</g>
</g>
<defs>
<clipPath id="clip0_7166_705">
<rect width="14" height="14" fill="white" transform="translate(6 6)"/>
</clipPath>
<clipPath id="clip1_7166_705">
<rect width="7" height="7" fill="white" transform="translate(13 13)"/>
</clipPath>
</defs>
</svg>
