<svg width="22" height="26" viewBox="0 0 22 26" fill="none" xmlns="http://www.w3.org/2000/svg">
<g clip-path="url(#clip0_3000_5513)">
<path d="M21.2025 5.28763L16.721 0.806147C16.2009 0.286052 15.5162 0 14.788 0H6.38849C4.88022 0 3.64933 1.23089 3.64933 2.73917V3.658H2.7305C1.22222 3.658 0 4.88022 0 6.38849V23.0922C0 24.6005 1.23089 25.8227 2.7305 25.8227H15.6115C17.1198 25.8227 18.342 24.5918 18.342 23.0922V22.1734H19.2522C20.7604 22.1734 21.9913 20.9425 21.9913 19.4342V7.21198C21.9913 6.49251 21.6966 5.79039 21.1939 5.27896L21.2025 5.28763ZM19.3388 5.62569H17.5445C16.9031 5.62569 16.3743 5.09693 16.3743 4.45548V2.66115L19.3388 5.62569ZM16.7904 23.1009C16.7904 23.751 16.2616 24.2711 15.6202 24.2711H2.7305C2.08038 24.2711 1.56028 23.7423 1.56028 23.1009V6.38849C1.56028 5.73838 2.08905 5.21828 2.7305 5.21828H3.64933V19.4429C3.64933 20.9511 4.88022 22.182 6.38849 22.182H16.7904V23.1009ZM20.4397 19.4429C20.4397 20.093 19.911 20.6218 19.2608 20.6218H6.38849C5.73838 20.6218 5.20961 20.093 5.20961 19.4429V2.73917C5.20961 2.08905 5.73838 1.56028 6.38849 1.56028H14.7794C14.7794 1.56028 14.7967 1.56028 14.8054 1.56028V4.44681C14.8054 5.95508 16.0276 7.17731 17.5359 7.17731H20.4224C20.4224 7.17731 20.4224 7.19464 20.4224 7.21198V19.4342L20.4397 19.4429Z" fill="black"/>
<path d="M8.60045 10.9822H11.9724C12.4058 10.9822 12.7525 10.6354 12.7525 10.202C12.7525 9.76861 12.4058 9.42188 11.9724 9.42188H8.60045C8.16704 9.42188 7.82031 9.76861 7.82031 10.202C7.82031 10.6354 8.16704 10.9822 8.60045 10.9822Z" fill="black"/>
<path d="M17.0607 13.125H8.60045C8.16704 13.125 7.82031 13.4717 7.82031 13.9051C7.82031 14.3386 8.16704 14.6853 8.60045 14.6853H17.0607C17.4941 14.6853 17.8408 14.3386 17.8408 13.9051C17.8408 13.4717 17.4941 13.125 17.0607 13.125Z" fill="black"/>
<path d="M15.2837 16.8164H8.60045C8.16704 16.8164 7.82031 17.1631 7.82031 17.5965C7.82031 18.03 8.16704 18.3767 8.60045 18.3767H15.2837C15.7171 18.3767 16.0638 18.03 16.0638 17.5965C16.0638 17.1631 15.7171 16.8164 15.2837 16.8164Z" fill="black"/>
</g>
<defs>
<clipPath id="clip0_3000_5513">
<rect width="22" height="25.8314" fill="white"/>
</clipPath>
</defs>
</svg>
