<svg width="368" height="315" viewBox="0 0 368 315" fill="none" xmlns="http://www.w3.org/2000/svg">
<rect width="368" height="315" rx="10" fill="#FAFAFA"/>
<path opacity="0.25" d="M164.854 155.168C164.854 155.663 164.737 156.129 164.504 156.568C164.271 157.007 163.897 157.366 163.384 157.646C162.871 157.917 162.213 158.052 161.41 158.052H159.646V162H158.05V152.27H161.41C162.157 152.27 162.787 152.401 163.3 152.662C163.823 152.914 164.21 153.259 164.462 153.698C164.723 154.137 164.854 154.627 164.854 155.168ZM161.41 156.75C162.017 156.75 162.469 156.615 162.768 156.344C163.067 156.064 163.216 155.672 163.216 155.168C163.216 154.104 162.614 153.572 161.41 153.572H159.646V156.75H161.41ZM167.972 155.406C168.206 155.014 168.514 154.711 168.896 154.496C169.288 154.272 169.75 154.16 170.282 154.16V155.812H169.876C169.251 155.812 168.775 155.971 168.448 156.288C168.131 156.605 167.972 157.156 167.972 157.94V162H166.376V154.286H167.972V155.406ZM178.819 157.954C178.819 158.243 178.801 158.505 178.763 158.738H172.869C172.916 159.354 173.145 159.849 173.555 160.222C173.966 160.595 174.47 160.782 175.067 160.782C175.926 160.782 176.533 160.423 176.887 159.704H178.609C178.376 160.413 177.951 160.997 177.335 161.454C176.729 161.902 175.973 162.126 175.067 162.126C174.33 162.126 173.667 161.963 173.079 161.636C172.501 161.3 172.043 160.833 171.707 160.236C171.381 159.629 171.217 158.929 171.217 158.136C171.217 157.343 171.376 156.647 171.693 156.05C172.02 155.443 172.473 154.977 173.051 154.65C173.639 154.323 174.311 154.16 175.067 154.16C175.795 154.16 176.444 154.319 177.013 154.636C177.583 154.953 178.026 155.401 178.343 155.98C178.661 156.549 178.819 157.207 178.819 157.954ZM177.153 157.45C177.144 156.862 176.934 156.391 176.523 156.036C176.113 155.681 175.604 155.504 174.997 155.504C174.447 155.504 173.975 155.681 173.583 156.036C173.191 156.381 172.958 156.853 172.883 157.45H177.153ZM183.372 160.572L185.556 154.286H187.25L184.31 162H182.406L179.48 154.286H181.188L183.372 160.572ZM189.268 153.264C188.979 153.264 188.736 153.166 188.54 152.97C188.344 152.774 188.246 152.531 188.246 152.242C188.246 151.953 188.344 151.71 188.54 151.514C188.736 151.318 188.979 151.22 189.268 151.22C189.548 151.22 189.786 151.318 189.982 151.514C190.178 151.71 190.276 151.953 190.276 152.242C190.276 152.531 190.178 152.774 189.982 152.97C189.786 153.166 189.548 153.264 189.268 153.264ZM190.052 154.286V162H188.456V154.286H190.052ZM199.218 157.954C199.218 158.243 199.199 158.505 199.162 158.738H193.268C193.314 159.354 193.543 159.849 193.954 160.222C194.364 160.595 194.868 160.782 195.466 160.782C196.324 160.782 196.931 160.423 197.286 159.704H199.008C198.774 160.413 198.35 160.997 197.734 161.454C197.127 161.902 196.371 162.126 195.466 162.126C194.728 162.126 194.066 161.963 193.478 161.636C192.899 161.3 192.442 160.833 192.106 160.236C191.779 159.629 191.616 158.929 191.616 158.136C191.616 157.343 191.774 156.647 192.092 156.05C192.418 155.443 192.871 154.977 193.45 154.65C194.038 154.323 194.71 154.16 195.466 154.16C196.194 154.16 196.842 154.319 197.412 154.636C197.981 154.953 198.424 155.401 198.742 155.98C199.059 156.549 199.218 157.207 199.218 157.954ZM197.552 157.45C197.542 156.862 197.332 156.391 196.922 156.036C196.511 155.681 196.002 155.504 195.396 155.504C194.845 155.504 194.374 155.681 193.982 156.036C193.59 156.381 193.356 156.853 193.282 157.45H197.552ZM211.148 154.286L208.754 162H207.074L205.52 156.302L203.966 162H202.286L199.878 154.286H201.502L203.112 160.488L204.75 154.286H206.416L207.984 160.46L209.58 154.286H211.148Z" fill="black"/>
</svg>
