<svg width="78" height="26" viewBox="0 0 78 26" fill="none" xmlns="http://www.w3.org/2000/svg">
<rect width="78" height="26" rx="4" fill="#ECFFEC"/>
<path d="M30.2218 15.404H26.8858L26.3338 17H24.5698L27.5818 8.612H29.5378L32.5498 17H30.7738L30.2218 15.404ZM29.7658 14.06L28.5538 10.556L27.3418 14.06H29.7658ZM33.7677 12.8C33.7677 11.976 33.9517 11.24 34.3197 10.592C34.6957 9.936 35.2037 9.428 35.8437 9.068C36.4917 8.7 37.2157 8.516 38.0157 8.516C38.9517 8.516 39.7717 8.756 40.4757 9.236C41.1797 9.716 41.6717 10.38 41.9517 11.228H40.0197C39.8277 10.828 39.5557 10.528 39.2037 10.328C38.8597 10.128 38.4597 10.028 38.0037 10.028C37.5157 10.028 37.0797 10.144 36.6957 10.376C36.3197 10.6 36.0237 10.92 35.8077 11.336C35.5997 11.752 35.4957 12.24 35.4957 12.8C35.4957 13.352 35.5997 13.84 35.8077 14.264C36.0237 14.68 36.3197 15.004 36.6957 15.236C37.0797 15.46 37.5157 15.572 38.0037 15.572C38.4597 15.572 38.8597 15.472 39.2037 15.272C39.5557 15.064 39.8277 14.76 40.0197 14.36H41.9517C41.6717 15.216 41.1797 15.884 40.4757 16.364C39.7797 16.836 38.9597 17.072 38.0157 17.072C37.2157 17.072 36.4917 16.892 35.8437 16.532C35.2037 16.164 34.6957 15.656 34.3197 15.008C33.9517 14.36 33.7677 13.624 33.7677 12.8ZM49.5866 8.624V9.98H47.3546V17H45.6746V9.98H43.4426V8.624H49.5866ZM52.9924 8.624V17H51.3124V8.624H52.9924ZM62.6762 8.624L59.6042 17H57.5642L54.4922 8.624H56.2922L58.5962 15.284L60.8882 8.624H62.6762ZM65.8635 9.98V12.08H68.6835V13.412H65.8635V15.632H69.0435V17H64.1835V8.612H69.0435V9.98H65.8635Z" fill="#28A54D"/>
<g clip-path="url(#clip0_7166_684)">
<path d="M10.875 9.79167V14.125L14.6666 11.9583L10.875 9.79167ZM17.375 7.625H7.62496C7.02913 7.625 6.54163 8.1125 6.54163 8.70833V15.2083C6.54163 15.8042 7.02913 16.2917 7.62496 16.2917H10.3333V17.375H14.6666V16.2917H17.375C17.9708 16.2917 18.4583 15.8042 18.4583 15.2083V8.70833C18.4583 8.1125 17.9708 7.625 17.375 7.625ZM17.375 15.2083H7.62496V8.70833H17.375V15.2083Z" fill="#38C153"/>
</g>
<defs>
<clipPath id="clip0_7166_684">
<rect width="13" height="13" fill="white" transform="translate(6 6)"/>
</clipPath>
</defs>
</svg>
