<svg width="51" height="26" viewBox="0 0 51 26" fill="none" xmlns="http://www.w3.org/2000/svg">
<rect width="51" height="26" rx="4" fill="#FFF6E7"/>
<path d="M31.3004 18.476L30.0284 16.952C29.6764 17.04 29.3164 17.084 28.9484 17.084C28.1644 17.084 27.4444 16.9 26.7884 16.532C26.1324 16.164 25.6124 15.656 25.2284 15.008C24.8444 14.352 24.6524 13.612 24.6524 12.788C24.6524 11.972 24.8444 11.24 25.2284 10.592C25.6124 9.936 26.1324 9.424 26.7884 9.056C27.4444 8.688 28.1644 8.504 28.9484 8.504C29.7404 8.504 30.4604 8.688 31.1084 9.056C31.7644 9.424 32.2804 9.936 32.6564 10.592C33.0404 11.24 33.2324 11.972 33.2324 12.788C33.2324 13.532 33.0724 14.212 32.7524 14.828C32.4404 15.436 32.0124 15.932 31.4684 16.316L33.3884 18.476H31.3004ZM26.3804 12.788C26.3804 13.348 26.4884 13.84 26.7044 14.264C26.9204 14.688 27.2204 15.016 27.6044 15.248C27.9964 15.472 28.4444 15.584 28.9484 15.584C29.4524 15.584 29.8964 15.472 30.2804 15.248C30.6644 15.016 30.9644 14.688 31.1804 14.264C31.3964 13.84 31.5044 13.348 31.5044 12.788C31.5044 12.228 31.3964 11.74 31.1804 11.324C30.9644 10.9 30.6644 10.576 30.2804 10.352C29.8964 10.128 29.4524 10.016 28.9484 10.016C28.4444 10.016 27.9964 10.128 27.6044 10.352C27.2204 10.576 26.9204 10.9 26.7044 11.324C26.4884 11.74 26.3804 12.228 26.3804 12.788ZM40.1417 15.404H36.8057L36.2537 17H34.4897L37.5017 8.612H39.4577L42.4697 17H40.6937L40.1417 15.404ZM39.6857 14.06L38.4737 10.556L37.2617 14.06H39.6857Z" fill="#DB880E"/>
<g clip-path="url(#clip0_1_257)">
<path d="M7.75 9.5H18.25V12.4167H19.4167V9.5C19.4167 8.85833 18.8917 8.33333 18.25 8.33333H7.75C7.10833 8.33333 6.58333 8.85833 6.58333 9.5V16.5C6.58333 17.1417 7.10833 17.6667 7.75 17.6667H13V16.5H7.75V9.5Z" fill="#DB880E"/>
<path d="M14.75 13L11.25 10.6667V15.3333L14.75 13Z" fill="#DB880E"/>
<path d="M19.2475 16.7508C19.265 16.5817 19.2708 16.4125 19.2533 16.2492L19.8775 15.7533C19.9358 15.7067 19.9475 15.6308 19.9125 15.5667L19.3117 14.5225C19.2767 14.4583 19.2008 14.435 19.1308 14.4583L18.3842 14.75C18.25 14.6508 18.1042 14.5692 17.9467 14.505L17.83 13.7117C17.8183 13.6358 17.76 13.5833 17.6842 13.5833H16.4767C16.4067 13.5833 16.3425 13.6358 16.3308 13.7058L16.2142 14.4992C16.0625 14.5633 15.9167 14.6508 15.7825 14.7442L15.0358 14.4525C14.9658 14.4233 14.89 14.4525 14.855 14.5167L14.2542 15.5608C14.2192 15.625 14.2308 15.7008 14.2892 15.7475L14.9133 16.2492C14.8958 16.4183 14.89 16.5875 14.9075 16.7508L14.2833 17.2467C14.225 17.2933 14.2133 17.3692 14.2483 17.4333L14.8492 18.4775C14.8842 18.5417 14.96 18.565 15.03 18.5417L15.7708 18.25C15.905 18.3492 16.0508 18.4308 16.2083 18.495L16.325 19.2883C16.3367 19.3583 16.395 19.4108 16.4708 19.4108H17.6783C17.7483 19.4108 17.8125 19.3583 17.8242 19.2883L17.9408 18.495C18.0925 18.4308 18.2383 18.3433 18.3725 18.25L19.1192 18.5417C19.1892 18.5708 19.265 18.5417 19.3 18.4775L19.9008 17.4333C19.9358 17.3692 19.9242 17.2933 19.8658 17.2467L19.2475 16.7508ZM17.0833 17.375C16.5992 17.375 16.2083 16.9842 16.2083 16.5C16.2083 16.0158 16.5992 15.625 17.0833 15.625C17.5675 15.625 17.9583 16.0158 17.9583 16.5C17.9583 16.9842 17.5675 17.375 17.0833 17.375Z" fill="#DB880E"/>
</g>
<defs>
<clipPath id="clip0_1_257">
<rect width="14" height="14" fill="white" transform="translate(6 6)"/>
</clipPath>
</defs>
</svg>
