<svg width="16" height="15" viewBox="0 0 16 15" fill="none" xmlns="http://www.w3.org/2000/svg">
<path d="M12.1667 0H2.16667C1.24167 0 0.5 0.75 0.5 1.66667V13.3333C0.5 14.25 1.24167 15 2.16667 15H13.8333C14.75 15 15.5 14.25 15.5 13.3333V3.33333L12.1667 0ZM13.8333 13.3333H2.16667V1.66667H11.475L13.8333 4.025V13.3333ZM8 7.5C6.61667 7.5 5.5 8.61667 5.5 10C5.5 11.3833 6.61667 12.5 8 12.5C9.38333 12.5 10.5 11.3833 10.5 10C10.5 8.61667 9.38333 7.5 8 7.5ZM3 2.5H10.5V5.83333H3V2.5Z" fill="#026FE9"/>
</svg>
