<svg width="20" height="18" viewBox="0 0 20 18" fill="none" xmlns="http://www.w3.org/2000/svg">
<path d="M9.06668 11C9.71112 11 10.2611 10.7722 10.7167 10.3167C11.1722 9.86111 11.4 9.31111 11.4 8.66667C11.4 8.02222 11.1722 7.47222 10.7167 7.01667C10.2611 6.56111 9.71112 6.33333 9.06668 6.33333C8.41112 6.33333 7.85834 6.56111 7.40834 7.01667C6.95834 7.47222 6.73334 8.02222 6.73334 8.66667C6.73334 9.31111 6.95834 9.86111 7.40834 10.3167C7.85834 10.7722 8.41112 11 9.06668 11Z" fill="#8C8C8C"/>
<path d="M7.20001 15.3333L6.93334 13.2C6.7889 13.1444 6.65279 13.0778 6.52501 13C6.39723 12.9222 6.27223 12.8389 6.15001 12.75L4.16668 13.5833L2.33334 10.4167L4.05001 9.11667C4.0389 9.03889 4.03334 8.96389 4.03334 8.89167V8.44167C4.03334 8.36944 4.0389 8.29444 4.05001 8.21667L2.33334 6.91667L4.16668 3.75L6.15001 4.58333C6.27223 4.49444 6.40001 4.41111 6.53334 4.33333C6.66668 4.25556 6.80001 4.18889 6.93334 4.13333L7.20001 2H10.8667L11.1333 4.13333C11.2778 4.18889 11.4139 4.25556 11.5417 4.33333C11.6695 4.41111 11.7945 4.49444 11.9167 4.58333L13.9 3.75L15.7333 6.91667L14.0167 8.21667C14.0278 8.29444 14.0333 8.36944 14.0333 8.44167V8.89167C14.0333 8.96389 14.0556 9.6591 14.0333 9.73688L12.55 9.68333C12.6056 9.52778 12.6445 9.36389 12.6667 9.19167C12.6889 9.01944 12.7 8.84444 12.7 8.66667C12.7 8.48889 12.6889 8.31389 12.6667 8.14167C12.6445 7.96944 12.6056 7.80556 12.55 7.65L13.9833 6.56667L13.3333 5.43333L11.6833 6.13333C11.4389 5.87778 11.1695 5.66389 10.875 5.49167C10.5806 5.31944 10.2611 5.18889 9.91668 5.1L9.70001 3.33333H8.38334L8.15001 5.1C7.80557 5.18889 7.48612 5.31944 7.19168 5.49167C6.89723 5.66389 6.62779 5.87222 6.38334 6.11667L4.73334 5.43333L4.08334 6.56667L5.51668 7.63333C5.46112 7.8 5.42223 7.96667 5.40001 8.13333C5.37779 8.3 5.36668 8.47778 5.36668 8.66667C5.36668 8.84444 5.37779 9.01667 5.40001 9.18333C5.42223 9.35 5.46112 9.51667 5.51668 9.68333L4.08334 10.7667L4.73334 11.9L6.38334 11.2C6.62779 11.4556 6.89723 11.6694 7.19168 11.8417C7.48612 12.0139 7.80557 12.1444 8.15001 12.2333L8.36668 14H9.68334V15.3333H7.20001Z" fill="#8C8C8C"/>
<path d="M15.7778 9.83334L11.5 14.4167L9.55554 12.3333" stroke="#8C8C8C" stroke-width="1.6" stroke-linecap="round" stroke-linejoin="round"/>
<rect x="0.5" y="0.5" width="19" height="17" rx="3.5" stroke="#E9E9E9"/>
</svg>
