<svg width="20" height="18" viewBox="0 0 20 18" fill="none" xmlns="http://www.w3.org/2000/svg">
<rect x="0.5" y="0.5" width="19" height="17" rx="3.5" stroke="#E9E9E9"/>
<path d="M12.219 11.781C11.7189 11.281 11.0406 11 10.3333 11H5.66667C4.95942 11 4.28115 11.281 3.78105 11.781C3.28095 12.2811 3 12.9594 3 13.6667V15M11.0437 13.6667L13 16L17.3333 10M10.6667 5.66667C10.6667 7.13943 9.47276 8.33333 8 8.33333C6.52724 8.33333 5.33333 7.13943 5.33333 5.66667C5.33333 4.19391 6.52724 3 8 3C9.47276 3 10.6667 4.19391 10.6667 5.66667Z" stroke="#8C8C8C" stroke-width="1.5" stroke-linecap="round" stroke-linejoin="round"/>
</svg>
