<svg width="32" height="32" viewBox="0 0 32 32" fill="none" xmlns="http://www.w3.org/2000/svg">
<rect width="32" height="32" rx="8" fill="#EDEDED"/>
<path d="M16 10.9167C16.9667 10.9167 17.75 11.7 17.75 12.6667C17.75 13.6333 16.9667 14.4167 16 14.4167C15.0333 14.4167 14.25 13.6333 14.25 12.6667C14.25 11.7 15.0333 10.9167 16 10.9167ZM16 18.4167C18.475 18.4167 21.0833 19.6333 21.0833 20.1667V21.0833H10.9167V20.1667C10.9167 19.6333 13.525 18.4167 16 18.4167ZM16 9.33334C14.1583 9.33334 12.6667 10.825 12.6667 12.6667C12.6667 14.5083 14.1583 16 16 16C17.8417 16 19.3333 14.5083 19.3333 12.6667C19.3333 10.825 17.8417 9.33334 16 9.33334ZM16 16.8333C13.775 16.8333 9.33333 17.95 9.33333 20.1667V22.6667H22.6667V20.1667C22.6667 17.95 18.225 16.8333 16 16.8333Z" fill="#666666"/>
</svg>
