<svg width="48" height="43" viewBox="0 0 48 43" fill="none" xmlns="http://www.w3.org/2000/svg">
<g clip-path="url(#clip0_1_8)">
<path d="M15.4 30.5C13.5 30.5 12 29.1 12 27.3V15.5C12 13.7 13.5 12.3 15.4 12.3C15.9 12.3 16.5 12.4 16.9 12.7L28.2 18.5C29.3 19.1 29.9 20.1 29.9 21.3C29.9 22.5 29.2 23.6 28.2 24.2L16.9 30.1C16.4 30.4 15.9 30.5 15.4 30.5ZM15.4 14.2C14.7 14.2 14 14.7 14 15.4V27.2C14 28.2 15.2 28.7 16 28.3L27.3 22.4C27.7 22.2 28 21.8 28 21.3C28 21.1 27.9 20.6 27.4 20.3L16 14.4C15.8 14.3 15.6 14.2 15.4 14.2Z" fill="black"/>
<path d="M38 42.5H3C1.3 42.5 0 41.2 0 39.5V4.5C0 2.8 1.3 1.5 3 1.5H27V3.5H3C2.4 3.5 2 3.9 2 4.5V39.5C2 40.1 2.4 40.5 3 40.5H38C38.4 40.5 38.7 40.3 38.9 40C39 39.8 39 39.7 39 39.5V22.5H41V39.5C41 40 40.9 40.5 40.6 41C40.1 41.9 39.1 42.5 38 42.5Z" fill="black"/>
<path d="M38 20C32.5 20 28 15.5 28 10C28 4.5 32.5 0 38 0C43.5 0 48 4.5 48 10C48 15.5 43.5 20 38 20ZM38 2C33.6 2 30 5.6 30 10C30 14.4 33.6 18 38 18C42.4 18 46 14.4 46 10C46 5.6 42.4 2 38 2Z" fill="black"/>
<path d="M39 8.5H37V15.5H39V8.5Z" fill="black"/>
<path d="M39 5.5H37V7.5H39V5.5Z" fill="black"/>
</g>
<defs>
<clipPath id="clip0_1_8">
<rect width="48" height="42.5" fill="white"/>
</clipPath>
</defs>
</svg>
