<svg width="20" height="17" viewBox="0 0 20 17" fill="none" xmlns="http://www.w3.org/2000/svg">
<g id="Layer_1" clip-path="url(#clip0_23_2937)">
<path id="Vector" d="M5.91337 12.9665C5.87359 12.9599 5.83382 12.9533 5.79404 12.9466C6.36414 12.2904 6.742 11.3026 6.742 10.3878C6.742 8.94266 5.78741 8.04773 4.24946 8.04773C2.71151 8.04773 1.75692 8.94266 1.75692 10.3878C1.75692 11.3026 2.13478 12.2904 2.70488 12.9466C2.66511 12.9533 2.62533 12.9599 2.58556 12.9665C1.75029 13.1057 0.00683594 13.3974 0.00683594 15.8104V16.3076H8.50534V15.8104C8.50534 13.404 6.76189 13.1124 5.92662 12.9665H5.91337ZM1.03435 15.3132C1.21333 14.2062 2.02208 14.0736 2.75128 13.9476C2.90375 13.9211 3.04296 13.9012 3.14903 13.8681C3.38105 13.8084 3.69262 13.6361 3.90475 13.1654L4.07048 12.8008L3.74565 12.5621C3.19543 12.1644 2.75791 11.2032 2.75791 10.3878C2.75791 9.27411 3.57329 9.04209 4.25609 9.04209C4.93889 9.04209 5.75427 9.27411 5.75427 10.3878C5.75427 11.2032 5.32338 12.1578 4.76653 12.5621L4.4417 12.8008L4.60743 13.172C4.81956 13.6427 5.13776 13.815 5.36315 13.8747C5.47584 13.9012 5.60843 13.9277 5.7609 13.9543C6.48347 14.0736 7.29222 14.2128 7.47783 15.3199H1.03435V15.3132Z" fill="#026FE9"/>
<path id="Vector_2" d="M18.5748 0.80875H16.8181V0H15.8237V0.80875H6.90094V0H5.90658V0.80875H4.14987C3.361 0.80875 2.72461 1.45177 2.72461 2.23401V7.33842C3.02955 7.21246 3.361 7.13291 3.71897 7.09314V5.30991H19.0057V14.0736C19.0057 14.3122 18.8134 14.5045 18.5748 14.5045H9.32719C9.40674 14.7962 9.45978 15.1342 9.47966 15.4988H18.5814C19.3703 15.4988 20.0067 14.8558 20.0067 14.0736V2.23401C20.0067 1.44514 19.3637 0.80875 18.5814 0.80875H18.5748ZM19.0057 4.32217H3.71897V2.24064C3.71897 2.00199 3.91122 1.80974 4.14987 1.80974H5.90658V2.62512H6.90094V1.80974H15.8171V2.62512H16.8115V1.80974H18.5682C18.8068 1.80974 18.9991 2.00199 18.9991 2.24064V4.32217H19.0057Z" fill="#026FE9"/>
</g>
<defs>
<clipPath id="clip0_23_2937">
<rect width="20" height="16.3076" fill="white"/>
</clipPath>
</defs>
</svg>
