<svg width="20" height="20" viewBox="0 0 20 20" fill="none" xmlns="http://www.w3.org/2000/svg">
<g clip-path="url(#clip0_1109_24028)">
<path d="M15 9.16797C15 9.7263 15 10.2763 15 10.8346C16 10.8346 17.3 10.8346 18.3333 10.8346C18.3333 10.2763 18.3333 9.7263 18.3333 9.16797C17.3 9.16797 16 9.16797 15 9.16797Z" fill="#026FE9"/>
<path d="M13.334 14.6737C14.134 15.2654 15.1757 16.0487 16.0007 16.6654C16.334 16.2237 16.6673 15.7737 17.0007 15.332C16.1757 14.7154 15.134 13.932 14.334 13.332C14.0007 13.782 13.6673 14.232 13.334 14.6737Z" fill="#026FE9"/>
<path d="M17.0007 4.66536C16.6673 4.2237 16.334 3.7737 16.0007 3.33203C15.1757 3.9487 14.134 4.73203 13.334 5.33203C13.6673 5.7737 14.0007 6.2237 14.334 6.66536C15.134 6.06536 16.1757 5.29036 17.0007 4.66536Z" fill="#026FE9"/>
<path d="M3.33268 7.5C2.41602 7.5 1.66602 8.25 1.66602 9.16667V10.8333C1.66602 11.75 2.41602 12.5 3.33268 12.5H4.16602V15.8333H5.83268V12.5H6.66602L10.8327 15V5L6.66602 7.5H3.33268ZM7.52435 8.925L9.16601 7.94167V12.0583L7.52435 11.075L7.12435 10.8333H6.66602H3.33268V9.16667H6.66602H7.12435L7.52435 8.925Z" fill="#026FE9"/>
<path d="M12.916 9.9987C12.916 8.89037 12.4327 7.89036 11.666 7.20703V12.782C12.4327 12.107 12.916 11.107 12.916 9.9987Z" fill="#026FE9"/>
</g>
<defs>
<clipPath id="clip0_1109_24028">
<rect width="20" height="20" fill="white"/>
</clipPath>
</defs>
</svg>
