<svg width="16" height="16" viewBox="0 0 16 16" fill="none" xmlns="http://www.w3.org/2000/svg">
<g clip-path="url(#clip0_1109_24029)">
<path d="M15.281 7.23321L8.23009 0.186843C8.10718 0.0639408 7.93876 -0.00433799 7.76124 0.00021393L0.7968 0.177739C0.455406 0.186843 0.182291 0.459958 0.177739 0.7968L0.00021393 7.76124C-0.00433799 7.93421 0.0639408 8.10263 0.186843 8.23009L7.23777 15.2765C7.71572 15.7544 8.34844 15.9957 8.9766 15.9957C9.60477 15.9957 10.2375 15.7544 10.7154 15.2765L15.281 10.7109C15.7453 10.2466 16.0002 9.62753 16.0002 8.97205C16.0002 8.31657 15.7453 7.69751 15.281 7.23321ZM14.3752 9.8096L9.8096 14.3752C9.34986 14.8349 8.59879 14.8349 8.1345 14.3752L1.2793 7.51999L1.43407 1.43407L7.51999 1.2793L14.3752 8.1345C14.5982 8.35754 14.7211 8.65341 14.7211 8.97205C14.7211 9.29068 14.5982 9.58656 14.3752 9.8096Z" fill="#026FE9"/>
<path d="M3.88194 3.88194C2.89873 4.86516 2.89873 6.46743 3.88194 7.45065C4.37355 7.94226 5.01992 8.18806 5.6663 8.18806C6.31267 8.18806 6.95904 7.94226 7.45065 7.45065C8.43386 6.46288 8.43386 4.86516 7.45065 3.88194C6.46743 2.89873 4.86516 2.89873 3.88194 3.88194ZM6.54937 6.54937C6.06231 7.03642 5.27028 7.03642 4.78322 6.54937C4.29617 6.06231 4.29617 5.27028 4.78322 4.78322C5.02447 4.54197 5.34766 4.41907 5.6663 4.41907C5.98493 4.41907 6.30356 4.54197 6.54937 4.78322C7.03187 5.27028 7.03187 6.06231 6.54937 6.54937Z" fill="#026FE9"/>
</g>
<defs>
<clipPath id="clip0_1109_24029">
<rect width="16" height="15.9954" fill="white"/>
</clipPath>
</defs>
</svg>
