<svg width="216" height="145" viewBox="0 0 216 145" fill="none" xmlns="http://www.w3.org/2000/svg">
<path opacity="0.4" d="M0 0H216V145H0V0Z" fill="#DFE2E3"/>
<path d="M77.26 70.6C77.26 71.4533 77.06 72.2333 76.66 72.94C76.2733 73.6333 75.68 74.1933 74.88 74.62C74.0933 75.0333 73.1267 75.24 71.98 75.24H70.04V80H66.12V65.9H71.98C73.1133 65.9 74.0733 66.1 74.86 66.5C75.66 66.9 76.26 67.4533 76.66 68.16C77.06 68.8667 77.26 69.68 77.26 70.6ZM71.6 72.12C72.7067 72.12 73.26 71.6133 73.26 70.6C73.26 69.5733 72.7067 69.06 71.6 69.06H70.04V72.12H71.6ZM90.7548 77.7H85.7548L84.9948 80H80.8748L86.0148 65.9H90.5348L95.6548 80H91.5148L90.7548 77.7ZM89.7748 74.7L88.2548 70.14L86.7548 74.7H89.7748ZM107.073 80L104.273 74.8H103.853V80H99.9325V65.9H106.113C107.246 65.9 108.206 66.1 108.993 66.5C109.779 66.8867 110.373 67.4267 110.773 68.12C111.173 68.8 111.373 69.5667 111.373 70.42C111.373 71.38 111.106 72.2267 110.572 72.96C110.053 73.68 109.286 74.1933 108.273 74.5L111.453 80H107.073ZM103.853 72.12H105.793C106.326 72.12 106.726 71.9933 106.993 71.74C107.259 71.4867 107.393 71.12 107.393 70.64C107.393 70.1867 107.253 69.8333 106.973 69.58C106.706 69.3133 106.313 69.18 105.793 69.18H103.853V72.12ZM126.775 65.9V69.02H123.015V80H119.095V69.02H115.375V65.9H126.775ZM148.354 68.84H142.354V71.06C142.607 70.7933 142.954 70.58 143.394 70.42C143.834 70.26 144.32 70.18 144.854 70.18C145.814 70.18 146.614 70.4 147.254 70.84C147.907 71.28 148.387 71.86 148.694 72.58C149 73.3 149.154 74.0867 149.154 74.94C149.154 76.5133 148.707 77.7533 147.814 78.66C146.92 79.5533 145.68 80 144.094 80C142.987 80 142.027 79.8133 141.214 79.44C140.414 79.0533 139.8 78.52 139.374 77.84C138.947 77.16 138.727 76.38 138.714 75.5H142.534C142.574 75.8067 142.707 76.0733 142.934 76.3C143.16 76.5267 143.494 76.64 143.934 76.64C144.4 76.64 144.754 76.48 144.994 76.16C145.234 75.84 145.354 75.4133 145.354 74.88C145.354 74.36 145.227 73.9667 144.974 73.7C144.72 73.42 144.354 73.28 143.874 73.28C143.514 73.28 143.22 73.3733 142.994 73.56C142.78 73.7333 142.654 73.9533 142.614 74.22H138.794V65.38H148.354V68.84Z" fill="black" fill-opacity="0.1"/>
</svg>
