<svg width="216" height="145" viewBox="0 0 216 145" fill="none" xmlns="http://www.w3.org/2000/svg">
<path opacity="0.4" d="M0 0H216V145H0V0Z" fill="#ACEFEB"/>
<path d="M78.26 71.6C78.26 72.4533 78.06 73.2333 77.66 73.94C77.2733 74.6333 76.68 75.1933 75.88 75.62C75.0933 76.0333 74.1267 76.24 72.98 76.24H71.04V81H67.12V66.9H72.98C74.1133 66.9 75.0733 67.1 75.86 67.5C76.66 67.9 77.26 68.4533 77.66 69.16C78.06 69.8667 78.26 70.68 78.26 71.6ZM72.6 73.12C73.7067 73.12 74.26 72.6133 74.26 71.6C74.26 70.5733 73.7067 70.06 72.6 70.06H71.04V73.12H72.6ZM91.7548 78.7H86.7548L85.9948 81H81.8748L87.0148 66.9H91.5348L96.6548 81H92.5148L91.7548 78.7ZM90.7748 75.7L89.2548 71.14L87.7548 75.7H90.7748ZM108.073 81L105.273 75.8H104.853V81H100.933V66.9H107.113C108.246 66.9 109.206 67.1 109.993 67.5C110.779 67.8867 111.373 68.4267 111.773 69.12C112.173 69.8 112.373 70.5667 112.373 71.42C112.373 72.38 112.106 73.2267 111.572 73.96C111.053 74.68 110.286 75.1933 109.273 75.5L112.453 81H108.073ZM104.853 73.12H106.793C107.326 73.12 107.726 72.9933 107.993 72.74C108.259 72.4867 108.393 72.12 108.393 71.64C108.393 71.1867 108.253 70.8333 107.973 70.58C107.706 70.3133 107.313 70.18 106.793 70.18H104.853V73.12ZM127.775 66.9V70.02H124.015V81H120.095V70.02H116.375V66.9H127.775ZM138.594 77.86C139.887 76.8467 140.947 75.9733 141.774 75.24C142.6 74.5067 143.294 73.7533 143.854 72.98C144.414 72.1933 144.694 71.4467 144.694 70.74C144.694 70.3133 144.594 69.98 144.394 69.74C144.207 69.5 143.927 69.38 143.554 69.38C143.167 69.38 142.867 69.5467 142.654 69.88C142.44 70.2 142.34 70.6733 142.354 71.3H138.554C138.594 70.1133 138.854 69.1333 139.334 68.36C139.814 67.5733 140.44 67 141.214 66.64C141.987 66.2667 142.847 66.08 143.794 66.08C145.434 66.08 146.654 66.4867 147.454 67.3C148.254 68.1133 148.654 69.1667 148.654 70.46C148.654 71.8467 148.187 73.1467 147.254 74.36C146.334 75.5733 145.18 76.66 143.794 77.62H148.794V80.8H138.594V77.86Z" fill="black" fill-opacity="0.1"/>
</svg>
