<svg width="221" height="148" viewBox="0 0 221 148" fill="none" xmlns="http://www.w3.org/2000/svg">
<path d="M0 0H221V148H0V0Z" fill="#DEC1FF" fill-opacity="0.4"/>
<path d="M83.26 72.6C83.26 73.4533 83.06 74.2333 82.66 74.94C82.2733 75.6333 81.68 76.1933 80.88 76.62C80.0933 77.0333 79.1267 77.24 77.98 77.24H76.04V82H72.12V67.9H77.98C79.1133 67.9 80.0733 68.1 80.86 68.5C81.66 68.9 82.26 69.4533 82.66 70.16C83.06 70.8667 83.26 71.68 83.26 72.6ZM77.6 74.12C78.7067 74.12 79.26 73.6133 79.26 72.6C79.26 71.5733 78.7067 71.06 77.6 71.06H76.04V74.12H77.6ZM96.7548 79.7H91.7548L90.9948 82H86.8748L92.0148 67.9H96.5348L101.655 82H97.5148L96.7548 79.7ZM95.7748 76.7L94.2548 72.14L92.7548 76.7H95.7748ZM113.073 82L110.273 76.8H109.853V82H105.933V67.9H112.113C113.246 67.9 114.206 68.1 114.993 68.5C115.779 68.8867 116.373 69.4267 116.773 70.12C117.173 70.8 117.373 71.5667 117.373 72.42C117.373 73.38 117.106 74.2267 116.572 74.96C116.053 75.68 115.286 76.1933 114.273 76.5L117.453 82H113.073ZM109.853 74.12H111.793C112.326 74.12 112.726 73.9933 112.993 73.74C113.259 73.4867 113.393 73.12 113.393 72.64C113.393 72.1867 113.253 71.8333 112.973 71.58C112.706 71.3133 112.313 71.18 111.793 71.18H109.853V74.12ZM132.775 67.9V71.02H129.015V82H125.095V71.02H121.375V67.9H132.775ZM143.294 71.06V67.38H149.454V82H145.354V71.06H143.294Z" fill="black" fill-opacity="0.1"/>
</svg>
