<svg width="216" height="145" viewBox="0 0 216 145" fill="none" xmlns="http://www.w3.org/2000/svg">
<path opacity="0.4" d="M0 0H216V145H0V0Z" fill="#B4DAFF"/>
<path d="M77.26 70.6C77.26 71.4533 77.06 72.2333 76.66 72.94C76.2733 73.6333 75.68 74.1933 74.88 74.62C74.0933 75.0333 73.1267 75.24 71.98 75.24H70.04V80H66.12V65.9H71.98C73.1133 65.9 74.0733 66.1 74.86 66.5C75.66 66.9 76.26 67.4533 76.66 68.16C77.06 68.8667 77.26 69.68 77.26 70.6ZM71.6 72.12C72.7067 72.12 73.26 71.6133 73.26 70.6C73.26 69.5733 72.7067 69.06 71.6 69.06H70.04V72.12H71.6ZM90.7548 77.7H85.7548L84.9948 80H80.8748L86.0148 65.9H90.5348L95.6548 80H91.5148L90.7548 77.7ZM89.7748 74.7L88.2548 70.14L86.7548 74.7H89.7748ZM107.073 80L104.273 74.8H103.853V80H99.9325V65.9H106.113C107.246 65.9 108.206 66.1 108.993 66.5C109.779 66.8867 110.373 67.4267 110.773 68.12C111.173 68.8 111.373 69.5667 111.373 70.42C111.373 71.38 111.106 72.2267 110.572 72.96C110.053 73.68 109.286 74.1933 108.273 74.5L111.453 80H107.073ZM103.853 72.12H105.793C106.326 72.12 106.726 71.9933 106.993 71.74C107.259 71.4867 107.393 71.12 107.393 70.64C107.393 70.1867 107.253 69.8333 106.973 69.58C106.706 69.3133 106.313 69.18 105.793 69.18H103.853V72.12ZM126.775 65.9V69.02H123.015V80H119.095V69.02H115.375V65.9H126.775ZM144.654 69.58C144.56 69.1267 144.407 68.7933 144.194 68.58C143.98 68.3667 143.667 68.26 143.254 68.26C142.627 68.26 142.187 68.5533 141.934 69.14C141.694 69.7267 141.567 70.6467 141.554 71.9C141.82 71.4867 142.207 71.16 142.714 70.92C143.22 70.68 143.78 70.56 144.394 70.56C145.687 70.56 146.72 70.96 147.494 71.76C148.28 72.56 148.674 73.7067 148.674 75.2C148.674 76.1867 148.467 77.0533 148.054 77.8C147.654 78.5333 147.067 79.1 146.294 79.5C145.534 79.9 144.634 80.1 143.594 80.1C141.527 80.1 140.087 79.46 139.274 78.18C138.474 76.8867 138.074 75.06 138.074 72.7C138.074 70.0867 138.5 68.1667 139.354 66.94C140.207 65.7133 141.58 65.1 143.474 65.1C145.007 65.1 146.167 65.5333 146.954 66.4C147.754 67.2533 148.2 68.3133 148.294 69.58H144.654ZM143.434 73.6C142.967 73.6 142.58 73.7333 142.274 74C141.98 74.2667 141.834 74.6467 141.834 75.14C141.834 75.66 141.974 76.06 142.254 76.34C142.534 76.62 142.934 76.76 143.454 76.76C143.934 76.76 144.307 76.6267 144.574 76.36C144.854 76.08 144.994 75.6867 144.994 75.18C144.994 74.6867 144.854 74.3 144.574 74.02C144.307 73.74 143.927 73.6 143.434 73.6Z" fill="black" fill-opacity="0.1"/>
</svg>
