<svg width="216" height="145" viewBox="0 0 216 145" fill="none" xmlns="http://www.w3.org/2000/svg">
<path opacity="0.4" d="M0 0H216V145H0V0Z" fill="#FFC2CC"/>
<path d="M77.26 70.6C77.26 71.4533 77.06 72.2333 76.66 72.94C76.2733 73.6333 75.68 74.1933 74.88 74.62C74.0933 75.0333 73.1267 75.24 71.98 75.24H70.04V80H66.12V65.9H71.98C73.1133 65.9 74.0733 66.1 74.86 66.5C75.66 66.9 76.26 67.4533 76.66 68.16C77.06 68.8667 77.26 69.68 77.26 70.6ZM71.6 72.12C72.7067 72.12 73.26 71.6133 73.26 70.6C73.26 69.5733 72.7067 69.06 71.6 69.06H70.04V72.12H71.6ZM90.7548 77.7H85.7548L84.9948 80H80.8748L86.0148 65.9H90.5348L95.6548 80H91.5148L90.7548 77.7ZM89.7748 74.7L88.2548 70.14L86.7548 74.7H89.7748ZM107.073 80L104.273 74.8H103.853V80H99.9325V65.9H106.113C107.246 65.9 108.206 66.1 108.993 66.5C109.779 66.8867 110.373 67.4267 110.773 68.12C111.173 68.8 111.373 69.5667 111.373 70.42C111.373 71.38 111.106 72.2267 110.572 72.96C110.053 73.68 109.286 74.1933 108.273 74.5L111.453 80H107.073ZM103.853 72.12H105.793C106.326 72.12 106.726 71.9933 106.993 71.74C107.259 71.4867 107.393 71.12 107.393 70.64C107.393 70.1867 107.253 69.8333 106.973 69.58C106.706 69.3133 106.313 69.18 105.793 69.18H103.853V72.12ZM126.775 65.9V69.02H123.015V80H119.095V69.02H115.375V65.9H126.775ZM137.954 77.6V74.36L144.094 65.6H148.394V74.2H149.934V77.6H148.394V80H144.434V77.6H137.954ZM144.734 70.02L141.974 74.2H144.734V70.02Z" fill="black" fill-opacity="0.1"/>
</svg>
