<svg width="216" height="145" viewBox="0 0 216 145" fill="none" xmlns="http://www.w3.org/2000/svg">
<path opacity="0.4" d="M0 0H216V145H0V0Z" fill="#FFDAB8"/>
<path d="M78.26 68.6C78.26 69.4533 78.06 70.2333 77.66 70.94C77.2733 71.6333 76.68 72.1933 75.88 72.62C75.0933 73.0333 74.1267 73.24 72.98 73.24H71.04V78H67.12V63.9H72.98C74.1133 63.9 75.0733 64.1 75.86 64.5C76.66 64.9 77.26 65.4533 77.66 66.16C78.06 66.8667 78.26 67.68 78.26 68.6ZM72.6 70.12C73.7067 70.12 74.26 69.6133 74.26 68.6C74.26 67.5733 73.7067 67.06 72.6 67.06H71.04V70.12H72.6ZM91.7548 75.7H86.7548L85.9948 78H81.8748L87.0148 63.9H91.5348L96.6548 78H92.5148L91.7548 75.7ZM90.7748 72.7L89.2548 68.14L87.7548 72.7H90.7748ZM108.073 78L105.273 72.8H104.853V78H100.933V63.9H107.113C108.246 63.9 109.206 64.1 109.993 64.5C110.779 64.8867 111.373 65.4267 111.773 66.12C112.173 66.8 112.373 67.5667 112.373 68.42C112.373 69.38 112.106 70.2267 111.572 70.96C111.053 71.68 110.286 72.1933 109.273 72.5L112.453 78H108.073ZM104.853 70.12H106.793C107.326 70.12 107.726 69.9933 107.993 69.74C108.259 69.4867 108.393 69.12 108.393 68.64C108.393 68.1867 108.253 67.8333 107.973 67.58C107.706 67.3133 107.313 67.18 106.793 67.18H104.853V70.12ZM127.775 63.9V67.02H124.015V78H120.095V67.02H116.375V63.9H127.775ZM138.894 67.74C138.947 66.2333 139.414 65.08 140.294 64.28C141.174 63.4667 142.4 63.06 143.974 63.06C145 63.06 145.874 63.24 146.594 63.6C147.327 63.9467 147.88 64.4267 148.254 65.04C148.627 65.64 148.814 66.32 148.814 67.08C148.814 67.9867 148.594 68.7133 148.154 69.26C147.714 69.7933 147.214 70.1533 146.654 70.34V70.42C148.267 71.02 149.074 72.1667 149.074 73.86C149.074 74.7 148.88 75.44 148.494 76.08C148.107 76.72 147.547 77.22 146.814 77.58C146.08 77.94 145.207 78.12 144.194 78.12C142.527 78.12 141.207 77.72 140.234 76.92C139.274 76.1067 138.774 74.8667 138.734 73.2H142.554C142.527 73.7333 142.64 74.1467 142.894 74.44C143.147 74.7333 143.527 74.88 144.034 74.88C144.42 74.88 144.72 74.76 144.934 74.52C145.16 74.28 145.274 73.96 145.274 73.56C145.274 73.0533 145.107 72.68 144.774 72.44C144.454 72.2 143.927 72.08 143.194 72.08H142.494V68.9H143.174C143.68 68.9133 144.107 68.8333 144.454 68.66C144.814 68.4733 144.994 68.1067 144.994 67.56C144.994 67.1467 144.894 66.84 144.694 66.64C144.494 66.4267 144.22 66.32 143.874 66.32C143.487 66.32 143.2 66.46 143.014 66.74C142.84 67.0067 142.74 67.34 142.714 67.74H138.894Z" fill="black" fill-opacity="0.1"/>
</svg>
