<svg width="28" height="28" viewBox="0 0 28 28" fill="none" xmlns="http://www.w3.org/2000/svg">
<rect x="0.5" y="0.5" width="27" height="27" rx="4.5" fill="white" stroke="black"/>
<g clip-path="url(#clip0_74_2800)">
<path fill-rule="evenodd" clip-rule="evenodd" d="M9.72 16.8571L10.64 15.9486C11.0914 15.5029 11.0914 14.7771 10.64 14.3314C10.1886 13.8857 9.45143 13.8857 9 14.3314C9 14.3314 7.30857 15.9943 6.50857 16.7829C6.18286 17.1029 6 17.5371 6 17.9943C6 18.4514 6.18286 18.8857 6.50857 19.2057C7.30857 19.9943 9 21.6571 9 21.6571C9.45143 22.1029 10.1886 22.1029 10.64 21.6571C11.0914 21.2114 11.0914 20.4857 10.64 20.04L9.72 19.1314H19.68C20.2971 19.1314 20.8857 18.8914 21.32 18.4629C21.7543 18.0343 22 17.4514 22 16.8457V7.14286C22 6.53143 21.5143 6.03429 20.8971 6H20.84C20.2 6 19.68 6.50857 19.68 7.14286V16.8571H9.72Z" fill="black"/>
</g>
<defs>
<clipPath id="clip0_74_2800">
<rect width="16" height="16" fill="white" transform="translate(6 6)"/>
</clipPath>
</defs>
</svg>
